<?xml version="1.0" encoding="UTF-8"?>
<svg id="Layer_1" data-name="Layer 1" xmlns="http://www.w3.org/2000/svg" viewBox="0 0 158.49 35.9">
  <defs>
    <style>
      .cls-1 {
        fill: #010000;
        fill-rule: evenodd;
      }
    </style>
  </defs>
  <path class="cls-1" d="M81.14,12.25c.47.28,1.02.42,1.64.42s1.19-.16,1.66-.49c.47-.33.83-.79,1.07-1.39h.11l.26,1.28c.05.24.18.35.39.35h1.71c.1,0,.18-.03.24-.1.07-.07.11-.16.11-.26v-6.85c0-1.42-.35-2.51-1.05-3.25-.69-.74-1.71-1.12-3.04-1.12-1.12,0-2.06.26-2.8.78-.74.51-1.22,1.23-1.45,2.15-.04.15-.03.28.01.37.05.09.14.15.28.18l1.79.33c.22.04.36-.07.43-.33.23-.88.75-1.32,1.55-1.32.5,0,.87.17,1.12.52.25.34.37.85.37,1.54v.29c-.28-.06-.64-.1-1.09-.1-.97,0-1.82.16-2.55.49-.72.33-1.28.79-1.67,1.4-.39.61-.58,1.32-.58,2.12,0,.67.13,1.27.39,1.78.26.51.63.91,1.11,1.2ZM82.87,10.1c-.24-.29-.36-.68-.36-1.16,0-.65.21-1.17.62-1.55.42-.39.99-.59,1.71-.59.22,0,.45.02.7.07v.72c0,.94-.14,1.67-.43,2.18-.29.5-.71.75-1.25.75-.41,0-.74-.14-.99-.42ZM90.05,1.21c-.06.06-.09.15-.09.25v10.62c0,.1.03.19.09.26.07.06.15.1.25.1h2.11c.1,0,.18-.03.24-.1.07-.07.11-.16.11-.26v-6.14c0-.79.13-1.39.39-1.81.27-.42.66-.63,1.17-.63.46,0,.82.18,1.07.53.25.35.37.86.37,1.52v6.52c0,.1.03.19.09.26.07.06.15.1.25.1h2.11c.1,0,.18-.03.24-.1.07-.07.11-.16.11-.26v-6.14c0-.79.13-1.39.39-1.81.27-.42.66-.63,1.17-.63.46,0,.82.18,1.07.53.25.35.37.86.37,1.52v6.52c0,.1.03.19.09.26.07.06.15.1.25.1h2.1c.1,0,.18-.03.24-.1.07-.07.11-.16.11-.26v-6.74c0-.92-.13-1.71-.38-2.38-.25-.67-.62-1.19-1.11-1.55-.47-.36-1.04-.54-1.68-.54-.6,0-1.14.17-1.62.5-.48.34-.92.85-1.3,1.54h-.11c-.25-.65-.62-1.16-1.09-1.51-.46-.35-1.02-.53-1.67-.53-.61,0-1.13.17-1.58.5-.44.33-.78.8-1.01,1.43h-.11l-.26-1.33c-.02-.11-.06-.2-.13-.26-.06-.06-.14-.1-.24-.1h-1.74c-.1,0-.18.04-.25.11ZM106.28,7.15c-.39.61-.58,1.32-.58,2.12,0,.67.13,1.27.39,1.78.26.51.63.91,1.11,1.2.47.28,1,.42,1.64.42s1.19-.16,1.66-.49c.47-.33.83-.79,1.07-1.39h.11l.26,1.28c.05.24.18.35.39.35h1.71c.1,0,.18-.03.24-.1.07-.07.11-.16.11-.26v-6.85c0-1.42-.35-2.51-1.05-3.25-.69-.74-1.71-1.12-3.04-1.12-1.12,0-2.06.26-2.8.78-.74.51-1.22,1.23-1.45,2.15-.03.15-.03.28.01.37.05.09.15.15.28.18l1.79.33c.22.04.36-.07.43-.33.23-.88.75-1.32,1.55-1.32.5,0,.87.17,1.12.52.25.34.37.85.37,1.54v.29c-.28-.06-.64-.1-1.09-.1-.97,0-1.82.16-2.55.49-.72.33-1.28.79-1.67,1.4ZM108.92,10.1c-.24-.29-.36-.68-.36-1.16,0-.65.21-1.17.62-1.55.42-.39.99-.59,1.71-.59.22,0,.45.02.7.07v.72c0,.94-.14,1.67-.43,2.18-.29.5-.71.75-1.25.75-.41,0-.74-.14-.99-.42ZM115.96,9.91c-.11.15-.16.32-.16.52v1.67c0,.14.04.23.13.29.09.05.2.05.33,0,.68-.25,1.31-.42,1.87-.53.57-.11,1.14-.16,1.74-.16s1.14.05,1.64.16c.51.1,1.09.28,1.75.53.13.05.24.06.33.01.09-.05.13-.15.13-.3v-1.57c0-.22-.1-.37-.3-.46-.57-.25-1.12-.44-1.66-.54-.53-.12-1.1-.18-1.74-.18-.25,0-.5.02-.75.07l4.08-5.8c.11-.15.16-.32.16-.52v-1.65c0-.1-.03-.18-.1-.25-.06-.07-.14-.11-.24-.11h-6.92c-.1,0-.18.04-.25.11-.06.06-.09.15-.09.25v1.58c0,.1.03.19.09.26.07.06.15.1.25.1h4.21l-4.5,6.52ZM124.92,3.76c-.41.9-.62,1.9-.62,3.01s.21,2.11.62,3.02c.41.9.98,1.61,1.7,2.12.73.51,1.53.76,2.42.76s1.7-.25,2.42-.76c.73-.52,1.3-1.23,1.71-2.12.42-.91.63-1.91.63-3.02s-.21-2.11-.63-3.01c-.41-.91-.98-1.62-1.71-2.12-.72-.52-1.53-.78-2.42-.78s-1.69.26-2.42.78c-.72.51-1.29,1.22-1.7,2.12ZM127.67,9.43c-.32-.63-.47-1.52-.47-2.67s.16-2.04.47-2.65c.32-.63.77-.94,1.37-.94s1.06.31,1.38.94c.32.62.49,1.5.49,2.65s-.16,2.04-.49,2.67c-.32.62-.78.93-1.38.93s-1.05-.31-1.37-.93ZM135.32,1.21c-.06.06-.09.15-.09.25v10.62c0,.1.03.19.09.26.07.06.15.1.25.1h2.1c.1,0,.18-.03.24-.1.07-.07.11-.16.11-.26v-6.14c0-.79.14-1.39.42-1.81.28-.42.69-.63,1.22-.63.48,0,.86.18,1.12.53.26.35.39.86.39,1.52v6.52c0,.1.03.19.09.26.07.06.15.1.25.1h2.11c.1,0,.17-.03.24-.1.07-.07.1-.16.1-.26v-6.74c0-.92-.13-1.71-.4-2.38-.26-.67-.64-1.19-1.13-1.55-.48-.36-1.06-.54-1.72-.54-.62,0-1.17.17-1.63.5-.46.34-.8.81-1.04,1.43h-.11l-.26-1.33c-.02-.11-.06-.2-.13-.26-.06-.06-.14-.1-.24-.1h-1.74c-.1,0-.18.04-.25.11ZM116.2,14.67c-.19.18-.23.37-.15.57.06.15.18.23.36.25.18.03.43,0,.75-.05.53-.12,1.07-.2,1.64-.25.57-.04,1.07-.03,1.49.03.42.06.68.17.79.33.16.25.1.76-.17,1.55-.26.79-.62,1.56-1.08,2.3-.18.3-.28.54-.32.71-.03.17,0,.32.13.44.08.08.17.12.26.12.25,0,.62-.23,1.11-.69.87-.78,1.48-1.71,1.83-2.78.19-.55.31-1.13.36-1.74.04-.61-.02-1.04-.2-1.31-.17-.25-.53-.46-1.11-.63-.56-.16-1.13-.25-1.7-.25-1.11,0-2.17.27-3.17.82-.37.21-.64.4-.83.59ZM86.96,13.99c-.17.14-.2.36-.11.68.09.28.29.63.62,1.05,1.31,1.67,2.86,3.06,4.67,4.17,1.81,1.11,3.74,1.92,5.8,2.45,2.07.54,4.18.8,6.34.8,2.76,0,5.4-.42,7.9-1.25,2.5-.83,4.59-1.99,6.26-3.48.59-.54.88-.96.88-1.28,0-.12-.05-.24-.14-.35-.13-.14-.29-.18-.47-.14-.19.05-.44.16-.78.34-1.61.87-3.56,1.57-5.87,2.08-2.3.53-4.7.79-7.2.79-3.1,0-6.09-.44-8.97-1.31-2.89-.87-5.44-2.23-7.67-4.08-.32-.26-.59-.43-.79-.5-.19-.07-.35-.06-.47.04Z"/>
  <path d="M72.64,12.05v-5.41c0-.44-.1-.76-.29-.97-.19-.2-.49-.31-.89-.31-.59,0-1.18.18-1.76.55v6.14h-2.36V.1h2.36v4.44c.93-.66,1.9-.99,2.91-.99.76,0,1.35.21,1.76.63.42.41.63,1,.63,1.76v6.11h-2.36Z"/>
  <path d="M66.22,11.84c-.58.23-1.23.34-1.95.34-.92,0-1.59-.22-2.04-.65-.43-.43-.65-1.1-.65-2v-3.99h-1.24v-1.45l1.31-.26.36-2.26h1.94v2.23h2.23v1.74h-2.23v3.88c0,.34.09.59.26.73.17.14.46.21.87.21.33,0,.72-.03,1.15-.1v1.58Z"/>
  <path d="M56.95,12.05V3.8h2.36v8.26h-2.36ZM58.12,2.52c-.41,0-.74-.11-.99-.34-.25-.23-.37-.53-.37-.92s.12-.69.37-.92c.25-.23.58-.34.99-.34s.74.11.99.34c.25.23.37.53.37.92s-.12.69-.37.92c-.25.23-.58.34-.99.34Z"/>
  <path d="M51.05,12.05l-1.42-5.8-1.44,5.8h-2.28l-2.63-8.26h2.49l1.37,5.96,1.49-5.96h2.12l1.52,5.98,1.29-5.98h2.42l-2.65,8.26h-2.28Z"/>
  <path d="M34.27,12.18l-3.26-8.38h2.5l1.84,6.17,1.74-6.17h2.44l-3.49,9.37c-.31.85-.69,1.46-1.15,1.84-.45.38-1.02.57-1.71.57-.54,0-1.06-.09-1.57-.26v-1.6c.34.03.65.05.92.05.45,0,.8-.11,1.05-.32.25-.2.46-.57.63-1.08l.05-.18Z"/>
  <path d="M28.62,12.05l-.19-.73c-.33.3-.72.54-1.16.73-.43.17-.85.26-1.26.26-.8,0-1.44-.23-1.92-.68-.47-.45-.71-1.06-.71-1.81,0-.52.13-.97.39-1.36.26-.4.63-.71,1.11-.94.48-.23,1.06-.34,1.71-.34.52,0,1.09.07,1.71.21v-.81c0-.5-.1-.83-.31-1.02-.2-.18-.58-.27-1.13-.27-.88,0-1.86.17-2.92.5v-1.57c.4-.2.9-.37,1.5-.48.6-.13,1.22-.19,1.84-.19,1.11,0,1.92.23,2.42.68.52.44.78,1.14.78,2.1v5.72h-1.86ZM26.67,10.73c.27,0,.54-.06.82-.18.29-.12.56-.28.81-.48v-1.41c-.47-.08-.9-.11-1.28-.11-.94,0-1.41.38-1.41,1.13,0,.33.09.59.27.78s.44.27.78.27Z"/>
  <path d="M16.89,7.96v4.09h-2.36V.86h4.28c1.16,0,2.08.32,2.76.95.68.64,1.02,1.5,1.02,2.6s-.34,1.97-1.02,2.6c-.68.64-1.6.95-2.76.95h-1.92ZM16.89,6.16h1.65c.54,0,.95-.15,1.23-.44.29-.3.44-.74.44-1.31s-.15-1-.44-1.29c-.28-.3-.69-.45-1.23-.45h-1.65v3.49Z"/>
  <path d="M158.49,32.68c-.49.18-1.01.27-1.57.27-.74,0-1.28-.17-1.64-.52-.35-.35-.53-.87-.53-1.58v-3.86h-1.2v-1.04l1.26-.18.25-2h1.34v1.96h2.03v1.26h-2.03v3.78c0,.32.07.55.22.69.16.13.42.2.78.2.39,0,.75-.04,1.08-.11v1.15Z"/>
  <path d="M151.04,32.84v-4.72c0-.46-.09-.79-.28-.99-.19-.21-.49-.32-.9-.32-.62,0-1.25.21-1.89.62v5.42h-1.65v-7.13h1.37l.17.78c.88-.66,1.79-.99,2.74-.99.68,0,1.2.18,1.55.55.36.35.53.87.53,1.55v5.24h-1.65Z"/>
  <path d="M143.21,32.84l-.17-.78c-.88.66-1.75.99-2.62.99-.66,0-1.18-.18-1.54-.55-.35-.37-.53-.91-.53-1.6v-5.19h1.65v4.7c0,.46.09.79.28,1.01.19.21.49.32.9.32.58,0,1.16-.19,1.75-.57v-5.46h1.65v7.13h-1.37Z"/>
  <path d="M133.6,33.05c-1.08,0-1.93-.33-2.53-.99-.61-.67-.91-1.6-.91-2.79s.3-2.11.91-2.77c.61-.66,1.45-.99,2.53-.99s1.93.33,2.54.99c.61.66.91,1.59.91,2.77s-.3,2.11-.91,2.79c-.61.66-1.45.99-2.54.99ZM133.6,31.75c1.18,0,1.76-.83,1.76-2.48s-.59-2.46-1.76-2.46-1.76.82-1.76,2.46.59,2.48,1.76,2.48Z"/>
  <path d="M129.51,32.56c-.55.29-1.21.43-1.97.43-1.09,0-1.93-.32-2.52-.95-.59-.63-.88-1.54-.88-2.7s.3-2.12.91-2.79c.61-.66,1.46-.99,2.55-.99.68,0,1.3.14,1.86.42v1.16c-.62-.18-1.16-.27-1.6-.27-.7,0-1.22.19-1.55.57-.33.37-.49.96-.49,1.75v.18c0,.78.16,1.36.49,1.74.34.37.85.56,1.55.56.5,0,1.06-.09,1.65-.28v1.16Z"/>
  <path d="M123.49,32.56c-.55.29-1.21.43-1.97.43-1.09,0-1.93-.32-2.52-.95-.59-.63-.88-1.54-.88-2.7s.3-2.12.91-2.79c.61-.66,1.46-.99,2.55-.99.68,0,1.3.14,1.86.42v1.16c-.63-.18-1.16-.27-1.6-.27-.7,0-1.22.19-1.55.57-.33.37-.49.96-.49,1.75v.18c0,.78.16,1.36.49,1.74.34.37.85.56,1.55.56.5,0,1.05-.09,1.65-.28v1.16Z"/>
  <path d="M115.43,32.84l-.13-.69c-.33.28-.69.5-1.09.66-.39.16-.78.24-1.18.24-.65,0-1.19-.2-1.6-.59-.4-.39-.6-.9-.6-1.53,0-.69.25-1.24.74-1.65.5-.41,1.18-.62,2.02-.62.5,0,1.04.07,1.62.21v-.83c0-.48-.1-.81-.31-.99-.21-.19-.56-.28-1.08-.28-.73,0-1.56.15-2.51.46v-1.16c.35-.18.76-.32,1.26-.42.5-.1,1.01-.15,1.51-.15.92,0,1.59.19,2.02.56.44.37.66.96.66,1.75v5.03h-1.34ZM113.5,31.88c.27,0,.56-.06.85-.17.3-.12.59-.29.87-.5v-1.34c-.49-.1-.93-.15-1.32-.15-.97,0-1.46.38-1.46,1.13,0,.33.09.58.28.77.19.18.44.27.77.27Z"/>
  <path d="M104.56,32.84v-4.72c0-.46-.09-.79-.28-.99-.19-.21-.49-.32-.9-.32-.62,0-1.25.21-1.89.62v5.42h-1.65v-7.13h1.37l.17.78c.88-.66,1.79-.99,2.74-.99.68,0,1.2.18,1.55.55.36.35.53.87.53,1.55v5.24h-1.65Z"/>
  <path d="M95.03,33.05c-1.08,0-1.93-.33-2.53-.99-.61-.67-.91-1.6-.91-2.79s.3-2.11.91-2.77c.61-.66,1.45-.99,2.53-.99s1.93.33,2.53.99c.61.66.91,1.59.91,2.77s-.3,2.11-.91,2.79c-.61.66-1.45.99-2.53.99ZM95.03,31.75c1.18,0,1.76-.83,1.76-2.48s-.59-2.46-1.76-2.46-1.76.82-1.76,2.46.59,2.48,1.76,2.48Z"/>
  <path d="M85.08,32.84v-1.22l3.98-4.65h-3.84v-1.26h5.61v1.22l-3.98,4.65h4.02v1.26h-5.8Z"/>
  <path d="M82.57,32.84l-.13-.69c-.33.28-.69.5-1.09.66-.39.16-.78.24-1.18.24-.65,0-1.19-.2-1.6-.59-.4-.39-.6-.9-.6-1.53,0-.69.25-1.24.74-1.65.5-.41,1.18-.62,2.02-.62.49,0,1.04.07,1.62.21v-.83c0-.48-.1-.81-.31-.99-.21-.19-.56-.28-1.08-.28-.73,0-1.56.15-2.51.46v-1.16c.35-.18.77-.32,1.26-.42.5-.1,1.01-.15,1.51-.15.91,0,1.59.19,2.02.56.44.37.66.96.66,1.75v5.03h-1.34ZM80.64,31.88c.27,0,.56-.06.85-.17.3-.12.59-.29.87-.5v-1.34c-.49-.1-.93-.15-1.32-.15-.97,0-1.46.38-1.46,1.13,0,.33.09.58.28.77.19.18.44.27.77.27Z"/>
  <path d="M75.07,32.84v-4.83c0-.43-.08-.74-.25-.92-.17-.19-.44-.28-.83-.28-.29,0-.6.05-.92.15-.33.09-.61.21-.85.36v5.52h-1.65v-4.83c0-.43-.08-.74-.25-.92-.17-.19-.44-.28-.83-.28-.27,0-.56.05-.88.14-.31.08-.61.21-.9.38v5.52h-1.65v-7.13h1.37l.15.71c.47-.32.91-.55,1.32-.7.42-.15.84-.22,1.26-.22.87,0,1.47.32,1.79.97.93-.64,1.83-.97,2.69-.97.66,0,1.18.18,1.54.55.36.35.55.87.55,1.55v5.24h-1.65Z"/>
  <path d="M63.41,32.84l-.81-2.44h-3.72l-.78,2.44h-1.76l3.53-9.7h1.85l3.51,9.7h-1.81ZM59.27,29.16h2.93l-1.47-4.48-1.46,4.48Z"/>
  <path d="M48.71,32.84v-7.13h1.37l.22,1.06c.37-.41.72-.7,1.05-.87.33-.17.68-.25,1.06-.25.18,0,.37.01.57.04v1.51c-.26-.05-.53-.07-.8-.07-.69,0-1.3.18-1.83.53v5.17h-1.65Z"/>
  <path d="M45.6,32.84l-.17-.78c-.88.66-1.75.99-2.62.99-.66,0-1.18-.18-1.54-.55-.35-.37-.53-.91-.53-1.6v-5.19h1.65v4.7c0,.46.09.79.28,1.01.19.21.49.32.9.32.58,0,1.16-.19,1.75-.57v-5.46h1.65v7.13h-1.37Z"/>
  <path d="M36,33.05c-1.08,0-1.93-.33-2.53-.99-.61-.67-.91-1.6-.91-2.79s.3-2.11.91-2.77c.61-.66,1.45-.99,2.53-.99s1.93.33,2.53.99c.61.66.91,1.59.91,2.77s-.3,2.11-.91,2.79c-.61.66-1.45.99-2.53.99ZM36,31.75c1.18,0,1.76-.83,1.76-2.48s-.59-2.46-1.76-2.46-1.76.82-1.76,2.46.59,2.48,1.76,2.48Z"/>
  <path d="M27.91,32.93l-2.79-7.21h1.76l1.81,5.64,1.83-5.64h1.69l-3.19,8.26c-.26.68-.57,1.17-.92,1.47-.35.3-.82.45-1.39.45-.42,0-.81-.07-1.18-.21v-1.15c.22.05.46.07.71.07.4,0,.7-.07.9-.22.2-.14.39-.46.57-.97l.18-.49Z"/>
  <path d="M16.63,29.68c.03.71.22,1.23.59,1.57.37.33.94.49,1.71.49.69,0,1.44-.13,2.24-.39v1.16c-.32.17-.7.3-1.13.39-.43.1-.88.15-1.34.15-1.18,0-2.07-.32-2.67-.95-.61-.63-.91-1.56-.91-2.77s.29-2.14.88-2.81c.6-.67,1.43-1.01,2.49-1.01.91,0,1.61.25,2.1.76.49.49.74,1.2.74,2.11,0,.49-.04.92-.13,1.3h-4.56ZM18.4,26.71c-.5,0-.91.17-1.23.5-.32.34-.5.79-.55,1.36h3.23v-.11c0-.57-.13-1-.38-1.3-.24-.3-.6-.45-1.08-.45Z"/>
  <path d="M12.85,30.91c0-.21-.07-.37-.2-.49-.13-.13-.37-.26-.73-.39l-1.16-.45c-1.05-.4-1.57-1.05-1.57-1.96,0-.65.24-1.17.73-1.54.49-.38,1.13-.57,1.95-.57s1.47.15,2.1.45v1.16c-.73-.23-1.4-.35-2-.35-.43,0-.75.07-.95.2-.2.12-.29.32-.29.59,0,.21.07.37.21.5.15.12.41.26.78.41l1.08.42c.56.21.96.47,1.2.77.25.3.38.68.38,1.13,0,.7-.25,1.26-.76,1.67-.5.4-1.2.6-2.1.6-.44,0-.87-.05-1.29-.14-.42-.09-.79-.22-1.11-.39v-1.16c.9.29,1.69.43,2.38.43.47,0,.81-.07,1.02-.21.21-.15.32-.37.32-.67Z"/>
  <path d="M6.1,23.14h1.71v6.15c0,1.21-.34,2.15-1.01,2.81-.67.65-1.64.98-2.9.98s-2.23-.33-2.9-.98c-.67-.66-1.01-1.6-1.01-2.81v-6.15h1.71v6.26c0,.73.19,1.29.56,1.68.37.38.92.57,1.64.57s1.26-.19,1.64-.57c.37-.39.56-.95.56-1.68v-6.26Z"/>
</svg>